<?xml version="1.0" encoding="UTF-8"?>
<svg version="1.1" xmlns="http://www.w3.org/2000/svg" width="269" height="269">
<path d="M0 0 C5.80512153 0.33637153 5.80512153 0.33637153 8.02734375 2.55859375 C8.2762146 5.21488953 8.2762146 5.21488953 8.27099609 8.64331055 C8.27177155 9.93066605 8.272547 11.21802155 8.27334595 12.54438782 C8.26242097 13.9697021 8.25070864 15.39501053 8.23828125 16.8203125 C8.23150684 18.30344114 8.22478381 19.78657001 8.21810913 21.2696991 C8.11533902 37.05412219 7.53436675 52.82144597 6.85546875 68.59008789 C6.68082309 72.65198105 6.5212085 76.71432598 6.36506081 80.77696705 C6.24106721 83.95391015 6.10862372 87.13045792 5.97364426 90.30695152 C5.9110338 91.8079247 5.85123219 93.30901797 5.79439163 94.81022072 C5.71494536 96.88022965 5.62389558 98.94941185 5.52978516 101.01879883 C5.45650497 102.77478142 5.45650497 102.77478142 5.38174438 104.5662384 C5.03885157 107.46142836 4.64679519 109.16096078 3.02734375 111.55859375 C0.63476124 113.22173037 -1.71517669 114.71732356 -4.22265625 116.18359375 C-9.57038032 119.41053453 -14.75319737 122.7332739 -19.78515625 126.43359375 C-27.3818211 131.97528013 -35.33001539 136.91719265 -43.3046875 141.89208984 C-48.20413524 144.95245132 -53.09031193 148.03354026 -57.97265625 151.12109375 C-58.92269531 151.71696289 -59.87273437 152.31283203 -60.8515625 152.92675781 C-62.17994141 153.7673877 -62.17994141 153.7673877 -63.53515625 154.625 C-64.32019531 155.11943604 -65.10523438 155.61387207 -65.9140625 156.12329102 C-67.84294285 157.46815434 -69.32459936 158.89506992 -70.97265625 160.55859375 C-72.19704348 161.41476838 -73.44846227 162.23306563 -74.71875 163.01953125 C-75.83600464 163.7168335 -75.83600464 163.7168335 -76.97583008 164.42822266 C-77.77915771 164.92499512 -78.58248535 165.42176758 -79.41015625 165.93359375 C-81.13215363 167.0106911 -82.85348628 168.08885178 -84.57421875 169.16796875 C-85.90888184 170.00424805 -85.90888184 170.00424805 -87.27050781 170.85742188 C-97.55676378 177.33326499 -107.79405309 183.89233626 -117.66015625 190.99609375 C-118.2226709 191.39948975 -118.78518555 191.80288574 -119.36474609 192.21850586 C-121.79285336 193.9656477 -124.20090727 195.73217387 -126.58203125 197.54296875 C-127.3503125 198.105 -128.11859375 198.66703125 -128.91015625 199.24609375 C-129.53792969 199.72433594 -130.16570312 200.20257813 -130.8125 200.6953125 C-137.58124224 203.40036139 -146.14099431 198.42562654 -152.41015625 195.99609375 C-153.52326172 195.57134766 -154.63636719 195.14660156 -155.78320312 194.70898438 C-158.51556476 193.66529259 -161.24519527 192.61501142 -163.97265625 191.55859375 C-163.97265625 190.89859375 -163.97265625 190.23859375 -163.97265625 189.55859375 C-164.61203125 189.46320313 -165.25140625 189.3678125 -165.91015625 189.26953125 C-170.09438622 188.29819215 -173.97585482 186.74293173 -177.97265625 185.18359375 C-179.8500843 184.45917881 -181.72769937 183.73524844 -183.60546875 183.01171875 C-184.62157227 182.61919922 -185.63767578 182.22667969 -186.68457031 181.82226562 C-191.46766327 179.98403507 -196.26221834 178.17632563 -201.0559082 176.3659668 C-212.07239269 172.20552271 -223.07370333 168.01982318 -233.97265625 163.55859375 C-234.02665361 162.10066491 -234.06544802 160.64216663 -234.09765625 159.18359375 C-234.13246094 157.96542969 -234.13246094 157.96542969 -234.16796875 156.72265625 C-233.97265625 154.55859375 -233.97265625 154.55859375 -231.97265625 152.55859375 C-229.29814148 152.30030823 -229.29814148 152.30030823 -225.8581543 152.28735352 C-224.57309494 152.2771669 -223.28803558 152.26698029 -221.96403503 152.25648499 C-220.93059999 152.2550735 -220.93059999 152.2550735 -219.87628746 152.2536335 C-217.71965073 152.24997502 -215.56347605 152.23326213 -213.40693665 152.21287537 C-207.27504074 152.15742186 -201.14307556 152.12681683 -195.01098633 152.10229492 C-191.2608248 152.08639332 -187.5109886 152.05614311 -183.76099586 152.01753044 C-182.33333613 152.00589851 -180.90561811 151.99995025 -179.477911 151.99984932 C-177.47700879 151.99965664 -175.4761378 151.97984485 -173.4753418 151.95922852 C-172.33775925 151.95415787 -171.2001767 151.94908722 -170.02812195 151.94386292 C-166.57975267 151.50905183 -164.70269322 150.69157131 -161.97265625 148.55859375 C-161.02049549 145.81162517 -160.41022763 143.45120789 -159.91015625 140.62109375 C-159.67329102 139.44401855 -159.67329102 139.44401855 -159.43164062 138.24316406 C-158.74223836 134.78661555 -158.11211258 131.31990167 -157.47705078 127.85302734 C-157.14487093 126.04758933 -156.80823903 124.24296446 -156.46704102 122.43920898 C-156.14467285 120.72389195 -155.83589206 119.00594873 -155.54272461 117.28540039 C-154.60276327 112.2195089 -153.2906148 108.65576983 -149.97265625 104.55859375 C-141.60076087 98.97733016 -128.27220317 103.27143248 -119.09765625 105.05859375 C-117.3506543 105.41546265 -117.3506543 105.41546265 -115.56835938 105.77954102 C-106.82402385 107.675235 -106.82402385 107.675235 -97.97265625 107.55859375 C-94.1915951 103.84203774 -93.01161882 100.00250247 -91.97265625 94.94921875 C-91.72902344 93.85985016 -91.72902344 93.85985016 -91.48046875 92.74847412 C-90.96488161 90.43781336 -90.46719435 88.12384341 -89.97265625 85.80859375 C-85.04442093 62.94812719 -85.04442093 62.94812719 -80.16015625 57.55859375 C-74.49069718 54.96684103 -69.06290117 55.60653713 -63.17578125 56.95703125 C-62.46033142 57.11144684 -61.74488159 57.26586243 -61.00775146 57.42495728 C-58.74343876 57.91667071 -56.48323543 58.42502375 -54.22265625 58.93359375 C-52.69033551 59.26798897 -51.15778483 59.60133231 -49.625 59.93359375 C-38.66474924 62.32789609 -38.66474924 62.32789609 -34.97265625 63.55859375 C-31.31369637 62.24389865 -29.39112353 61.16331623 -27.16308594 57.94360352 C-26.41140137 56.33183228 -26.41140137 56.33183228 -25.64453125 54.6875 C-25.3593866 54.08329727 -25.07424194 53.47909454 -24.78045654 52.85658264 C-20.61659307 43.87622149 -16.9492424 34.66356047 -13.22265625 25.49609375 C-12.09070853 22.71594327 -10.95711372 19.93651782 -9.81854248 17.15907288 C-9.11669485 15.44669592 -8.41860187 13.73277352 -7.72491455 12.01707458 C-3.17084643 0.89788325 -3.17084643 0.89788325 0 0 Z " fill="#3E7CF5" transform="translate(247.97265625,7.44140625)"/>
<path d="M0 0 C-0.36151647 29.00145414 -0.75112714 58.00760547 -1.75909424 86.99499512 C-1.8360245 89.23840967 -1.90829155 91.48198924 -1.97576904 93.72570801 C-2.0714264 96.84646354 -2.18527373 99.96601217 -2.3046875 103.0859375 C-2.32978394 103.99368927 -2.35488037 104.90144104 -2.3807373 105.83670044 C-2.66335246 112.36506389 -3.68769802 117.42343494 -8.1875 122.4375 C-11.89047308 124.49470727 -14.89721198 124.57293617 -19 124 C-23.03211406 122.74565462 -26.87221966 121.10213141 -30.75 119.4375 C-32.99333948 118.50561102 -35.23815144 117.57725933 -37.484375 116.65234375 C-38.59103516 116.19585449 -39.69769531 115.73936523 -40.83789062 115.26904297 C-45.17696431 113.52765129 -49.57092339 111.99409155 -54 110.5 C-65.84849751 106.45603809 -77.4164189 101.74139844 -89 97 C-89.62414795 96.74484619 -90.2482959 96.48969238 -90.89135742 96.22680664 C-95.49283907 94.34540134 -100.09103563 92.45612636 -104.6875 90.5625 C-105.31300751 90.30538239 -105.93851501 90.04826477 -106.58297729 89.78335571 C-108.37274264 89.04684197 -110.1610075 88.30668525 -111.94921875 87.56640625 C-112.97362061 87.14302979 -113.99802246 86.71965332 -115.0534668 86.28344727 C-118.09416604 84.95898327 -121.04700864 83.50880562 -124 82 C-124 81.01 -124 80.02 -124 79 C-122.5222168 77.77661133 -122.5222168 77.77661133 -120.44921875 76.58203125 C-119.30549805 75.90624023 -119.30549805 75.90624023 -118.13867188 75.21679688 C-117.32978516 74.75337891 -116.52089844 74.28996094 -115.6875 73.8125 C-109.46114114 70.20445858 -103.61553548 66.32863838 -97.82739258 62.05004883 C-93.16622669 58.67039163 -88.33556754 55.56006285 -83.5 52.4375 C-82.06720703 51.50647461 -82.06720703 51.50647461 -80.60546875 50.55664062 C-75.80922814 47.44460088 -70.99532512 44.36368509 -66.16015625 41.3125 C-61.32940363 38.24525269 -56.77825179 34.95428794 -52.21484375 31.50390625 C-50 30 -50 30 -48 30 C-48 29.34 -48 28.68 -48 28 C-45.73578258 26.55884769 -43.4689718 25.23905553 -41.125 23.9375 C-31.68008144 18.556274 -22.62797431 12.61182063 -13.56103516 6.62670898 C-12.47999512 5.91329346 -11.39895508 5.19987793 -10.28515625 4.46484375 C-8.82928101 3.49985962 -8.82928101 3.49985962 -7.34399414 2.51538086 C-3.453198 0 -3.453198 0 0 0 Z " fill="#ECB220" transform="translate(254,137)"/>
</svg>
